<svg xmlns="http://www.w3.org/2000/svg" xmlns:xlink="http://www.w3.org/1999/xlink" width="512" height="512" viewBox="0 0 512 512"><title>Outlines</title><defs><linearGradient id="b" x1="51.972%" x2="50%" y1="-33.723%" y2="99.762%"><stop offset="0%" stop-color="#fffbf7"/><stop offset="100%" stop-color="#ffecd5"/></linearGradient><path id="a" d="M0 0h512v512H0z"/></defs><g fill="none" fill-rule="evenodd"><mask id="c" fill="#fff"><use xlink:href="#a"/></mask><use xlink:href="#a" fill="url(#b)"/><g fill="#065886" mask="url(#c)"><path d="M319.889 88.064c15.528 0 23.998 12.698 18.822 28.688l-32.939 96.88c-7.058 21.163-30.586 39.034-52.23 39.034 21.644 0 32.938 17.401 25.88 39.034L244.6 394.224c-5.177 15.99-22.587 28.688-38.115 28.688H-8.557l97.875-289.23c2.823-7.995-1.412-14.108-9.411-14.108H-62.2l10.823-31.51ZM181.546 268.186h-46.114L93.553 391.402h46.114c8 0 16.47-6.584 18.822-14.108l32.469-95c2.352-7.524-1.883-14.108-9.412-14.108m50.35-148.612H185.78l-39.526 117.102h45.644c7.999 0 16.469-6.584 19.292-14.108l30.116-88.886c2.352-7.995-1.883-14.108-9.411-14.108"/><path d="M542.984 236.544h-86.9l-50.26 149.66c-2.818 8-11.273 14.118-19.258 14.118h-10.334c-7.986 0-12.213-6.118-9.395-14.119l40.866-120.95c5.167-16.002-3.288-28.709-18.789-28.709H243.3l-7.516 22.59h79.853c3.758 0 6.107 2.824 4.697 6.589l-43.214 128.48c-5.637 16.002 2.818 28.709 18.789 28.709h155.948c15.501 0 32.881-12.707 38.048-28.708z"/><path d="M761.22 236.544c15.538 0 24.013 12.707 18.834 28.708l-24.483 72.006c-5.18 15.06-20.717 27.296-35.313 28.238l14.596 57.416h-72.98c-10.358 0-17.891-5.648-19.775-14.59l-8.004-43.297H619.97l-19.775 57.887H513.09l53.205-157.19c1.412-3.764-.942-6.588-4.709-6.588h-80.042l7.533-22.59Zm-80.512 22.59h-24.955l-27.779 81.889h24.954c8.005 0 16.48-6.589 18.834-14.119l18.362-53.651c2.355-7.53-1.883-14.119-9.416-14.119"/></g></g></svg>